PathFileType	4	(X/Y/Z)	./resultDataOpenSim/trcMotMarkerGrf/sub06/qtm-03-03.trc
DataRate	CameraRate	NumFrames	NumMarkers	Units	OrigDataRate	OrigDataStartFrame	OrigNumFrames
250.000000	250.000000	15	24	m	250.000000	434	495
Frame#	Time	L.Toe.Tip			R.Toe.Tip			L.Ankle.Lat			R.Ankle.Lat			L.Ankle.Med			R.Ankle.Med			L.Heel			R.Heel			L.Knee.Lat			R.Knee.Lat			L.Knee.Med			R.Knee.Med			L.Thigh.Upper			R.Thigh.Upper			L.ASIS			R.ASIS			V.Sacral			L.Acromium			R.Acromium			C7			L.Elbow			R.Elbow			L.Wrist.Lat			R.Wrist.Lat
		X1	Y1	Z1	X2	Y2	Z2	X3	Y3	Z3	X4	Y4	Z4	X5	Y5	Z5	X6	Y6	Z6	X7	Y7	Z7	X8	Y8	Z8	X9	Y9	Z9	X10	Y10	Z10	X11	Y11	Z11	X12	Y12	Z12	X13	Y13	Z13	X14	Y14	Z14	X15	Y15	Z15	X16	Y16	Z16	X17	Y17	Z17	X18	Y18	Z18	X19	Y19	Z19	X20	Y20	Z20	X21	Y21	Z21	X22	Y22	Z22	X23	Y23	Z23	X24	Y24	Z24

434	1.732	1.6979739	0.03370518	-0.010709358	1.1149248	0.083103668	0.16215302	1.5728941	0.065787326	-0.034484994	1.1064638	0.22170807	0.19376745	1.5749871	0.0803738	0.051953779	1.1465591	0.21245961	0.11415794	1.4971644	0.039384801	0.008662841	1.080712	0.26568732	0.12999658	1.6298668	0.43660612	-0.05649355	1.4505772	0.38736908	0.23485673	1.6080881	0.43250117	0.062396292	1.4493557	0.36793441	0.10143988	1.4793685	0.80584227	-0.11832557	1.4127936	0.74820213	0.22020948	1.5380485	0.84367812	-0.061770213	1.5146915	0.81313211	0.18135191	1.3358699	0.89651918	0.056645936	1.4432132	1.3080763	-0.13172177	1.4397192	1.2969658	0.23200953	1.3597355	1.3393309	0.048059781	1.3505489	1.0060643	-0.17339116	1.428178	0.97194233	0.30451552	1.440134	0.78412441	-0.22682715	1.6537916	0.88063641	0.25309147
435	1.736	1.6979397	0.033697841	-0.010712903	1.1313381	0.084474663	0.16275496	1.5728711	0.065776009	-0.034514984	1.119764	0.22293106	0.193743	1.5750248	0.080431534	0.051949885	1.1597181	0.21417957	0.11413168	1.4971153	0.039478845	0.0086767955	1.0927138	0.26615052	0.13013703	1.6319323	0.43629809	-0.056400572	1.4627276	0.38939523	0.23505729	1.6094623	0.43186993	0.062455268	1.4611425	0.37027915	0.1017085	1.4850618	0.806974	-0.11865011	1.4182965	0.74981351	0.21970709	1.5436349	0.84483774	-0.06220457	1.5205544	0.81505192	0.18119201	1.3406827	0.89836001	0.056445147	1.4494866	1.3097474	-0.13178651	1.4448837	1.2986226	0.2320151	1.3655492	1.340928	0.047725401	1.3585597	1.0067978	-0.17355861	1.4304551	0.973515	0.30324466	1.4511845	0.78591361	-0.22647945	1.6551992	0.87812914	0.25460487
436	1.74	1.6979123	0.033688026	-0.010699177	1.1480253	0.085692277	0.16335196	1.5728531	0.065783444	-0.034537499	1.1331623	0.22382396	0.19371181	1.5750406	0.080487443	0.051956581	1.1730489	0.21552197	0.11419853	1.4970685	0.039593808	0.0085811288	1.1049822	0.26624522	0.13022563	1.6339133	0.43603594	-0.056204582	1.4748061	0.39160248	0.23516812	1.6105545	0.43138089	0.062562792	1.4729652	0.37263409	0.10184723	1.4907437	0.80810622	-0.11895545	1.4245965	0.75140925	0.21908171	1.549241	0.84603311	-0.062626447	1.5263661	0.81702276	0.18105364	1.3453418	0.90028253	0.056222947	1.4557278	1.3114744	-0.13183923	1.450039	1.3003259	0.232029	1.371332	1.3425534	0.047393282	1.3665589	1.0075763	-0.17372432	1.4326821	0.97518623	0.30238098	1.4622845	0.78781758	-0.22609921	1.6565709	0.87568313	0.25615909
437	1.744	1.6978972	0.033674372	-0.01067001	1.1647619	0.086696183	0.16402576	1.5728461	0.065799532	-0.034548715	1.1466802	0.22438225	0.19369515	1.575053	0.080546292	0.051973765	1.1865079	0.21649854	0.11428911	1.4970264	0.039698313	0.0084287156	1.1174862	0.26602806	0.13027597	1.6358165	0.43582811	-0.05591809	1.4868161	0.39399414	0.23519405	1.6114151	0.43104316	0.062725526	1.4848573	0.37498878	0.1018425	1.496234	0.80923832	-0.11917968	1.4315211	0.75301182	0.21837501	1.554837	0.84727409	-0.063032493	1.5321246	0.81903621	0.180934	1.3501106	0.90222412	0.055952924	1.4619478	1.3132551	-0.13188567	1.4551954	1.3020713	0.23204423	1.3771007	1.344201	0.047078882	1.3745493	1.008395	-0.17389449	1.4351639	0.97692959	0.30155247	1.4734279	0.78983575	-0.22569365	1.657953	0.87329938	0.25774113
438	1.748	1.6978931	0.033657939	-0.010628604	1.181348	0.087445151	0.16484503	1.5728458	0.065818412	-0.034551038	1.1603185	0.22461789	0.19371506	1.5750668	0.080606484	0.05200117	1.2000756	0.21714057	0.11434564	1.4969791	0.039764664	0.0082599082	1.1301532	0.26556221	0.13034055	1.6376474	0.43566654	-0.055555934	1.4987413	0.39656417	0.2351434	1.6121723	0.43087269	0.062962268	1.4968518	0.37734171	0.1017174	1.5014771	0.8103883	-0.11931548	1.4388846	0.7546433	0.21763695	1.5603937	0.8485547	-0.063426604	1.5378246	0.8210844	0.18083162	1.3551484	0.90411616	0.055651086	1.4681548	1.3150895	-0.13192574	1.4603444	1.3038562	0.23205786	1.3828639	1.345873	0.046797363	1.3825298	1.0092566	-0.17407677	1.4382251	0.97871911	0.30062336	1.4845939	0.791964	-0.22526428	1.6592915	0.87098817	0.25936099
439	1.752	1.6978914	0.033641456	-0.010579463	1.1977609	0.087952279	0.16581504	1.5728409	0.065838828	-0.034548021	1.1740535	0.22455983	0.19377926	1.5750667	0.080660504	0.05203891	1.2137565	0.21748911	0.11436837	1.4969111	0.03977772	0.0080995196	1.1429683	0.26486382	0.13038071	1.6394123	0.43553557	-0.055131823	1.510569	0.39928741	0.23502179	1.6128888	0.43086116	0.063268584	1.5089582	0.37970952	0.1014994	1.5066223	0.81157136	-0.11942321	1.4465268	0.75632378	0.21691339	1.5659074	0.84985599	-0.063810218	1.5434575	0.82316199	0.18074718	1.3604474	0.90592958	0.055345844	1.4743469	1.3169741	-0.13195602	1.4654795	1.3056724	0.23207251	1.3886212	1.3475793	0.046556227	1.3904961	1.0101636	-0.17427861	1.4416856	0.98056223	0.2996289	1.4957645	0.79419591	-0.2248065	1.6605227	0.86875899	0.26102848
440	1.756	1.6978835	0.033627893	-0.010527295	1.2141034	0.088251881	0.1668989	1.5728266	0.065866487	-0.034534601	1.1878552	0.22425261	0.19387416	1.5750348	0.080704663	0.052086114	1.2275786	0.21758003	0.11441732	1.4968287	0.03975231	0.008002141	1.1559307	0.26391492	0.13035652	1.6411105	0.4354233	-0.054661344	1.5223162	0.40213074	0.23482985	1.613489	0.43096072	0.063603933	1.5211417	0.38212695	0.10120909	1.5118336	0.81276992	-0.11955207	1.4543082	0.75807278	0.21624536	1.5713722	0.8511637	-0.064175656	1.5490195	0.82526825	0.18068206	1.3658781	0.90769117	0.055062827	1.4805119	1.3189001	-0.13197133	1.4706033	1.3075101	0.23209266	1.394369	1.3493244	0.046354476	1.398444	1.0111167	-0.17450412	1.4450595	0.98248648	0.2986533	1.5069456	0.79652515	-0.22432006	1.66161	0.86661619	0.26274659
441	1.76	1.6978667	0.033619421	-0.010475877	1.2304916	0.08837038	0.16805242	1.572811	0.065912231	-0.034498142	1.201709	0.22374198	0.19397713	1.5749763	0.080747192	0.052138181	1.2415932	0.21742723	0.11459474	1.4967662	0.039736796	0.0080437803	1.1690028	0.26269654	0.13033538	1.6427373	0.43532461	-0.054161812	1.5340185	0.40507383	0.23456892	1.6139494	0.43111946	0.063940017	1.533305	0.38463523	0.10086193	1.5171213	0.81393442	-0.11968959	1.4620941	0.75991152	0.21567266	1.5767658	0.85247835	-0.064506385	1.554529	0.8274061	0.18063287	1.3713734	0.90945123	0.05480039	1.4866369	1.3208621	-0.13196823	1.4757229	1.3093627	0.23211696	1.4001051	1.3510956	0.046185155	1.4063714	1.0121178	-0.17474778	1.4480488	0.98449636	0.297744	1.5181507	0.79894721	-0.22381107	1.6625469	0.86456006	0.26451443
442	1.764	1.6978442	0.033616954	-0.010427481	1.2469995	0.088330118	0.16923902	1.5728026	0.065983568	-0.034436749	1.215641	0.2230469	0.19407719	1.5749298	0.080804597	0.052186592	1.2558407	0.21702575	0.11499026	1.4967431	0.039778838	0.0082242151	1.1821131	0.26119748	0.1304766	1.6442981	0.43523766	-0.053645395	1.5456909	0.40810519	0.23424232	1.6144596	0.43131585	0.064300956	1.5453053	0.3872759	0.10047275	1.5223986	0.81502561	-0.11979822	1.4697398	0.7618641	0.21523812	1.5820712	0.85380801	-0.064786709	1.5600316	0.82957663	0.18058756	1.3770394	0.91124475	0.054515488	1.4927179	1.3228576	-0.1319491	1.4808514	1.311227	0.23213727	1.4058296	1.3528634	0.046037972	1.4142805	1.0131683	-0.17499772	1.4507395	0.98656442	0.29689486	1.5293745	0.80145927	-0.22328046	1.6633476	0.86259152	0.2663302
443	1.768	1.6978229	0.033620057	-0.010383463	1.2636606	0.088155966	0.1704347	1.572801	0.066079793	-0.034367678	1.2297577	0.22213951	0.19418711	1.5749518	0.080890335	0.052221908	1.2702582	0.21638257	0.11554044	1.4967402	0.039886735	0.0084369093	1.1952043	0.25940791	0.13085946	1.6457994	0.43516185	-0.053120632	1.5573151	0.41120438	0.23385081	1.6152311	0.43154547	0.064721124	1.5570365	0.39008203	0.10005648	1.5275771	0.8160455	-0.119865	1.4770833	0.76395399	0.21499009	1.5873253	0.85515772	-0.065024693	1.5655776	0.83177513	0.1805299	1.3830161	0.91306987	0.054162396	1.4987605	1.3248711	-0.13191843	1.4860097	1.3130995	0.23214581	1.4115448	1.3546031	0.045902848	1.4221761	1.0142664	-0.17525244	1.4534204	0.98866757	0.29607025	1.5406103	0.8040598	-0.22271928	1.6640364	0.86071432	0.26819126
444	1.772	1.6978093	0.033627045	-0.01034598	1.2805007	0.087871578	0.17162312	1.5728018	0.066195148	-0.034310016	1.2442285	0.22096162	0.19433966	1.5750772	0.081006654	0.052238838	1.2846505	0.21553954	0.11596901	1.4967355	0.0400318	0.0085802871	1.208306	0.25731704	0.13129594	1.6472338	0.43509944	-0.052597918	1.5688677	0.41434772	0.2333975	1.6162272	0.43179167	0.065184883	1.5685488	0.39305211	0.099613989	1.5325568	0.81702177	-0.11990379	1.4839576	0.76619167	0.21497771	1.5926332	0.85652604	-0.065259545	1.5711941	0.83399399	0.18044762	1.3892379	0.91487626	0.053754718	1.5047733	1.3268777	-0.13187664	1.4912181	1.3149676	0.23213829	1.4172531	1.356321	0.045776475	1.4300589	1.0154052	-0.17552742	1.456273	0.99080778	0.29523663	1.551893	0.80674967	-0.22211484	1.6646381	0.8589309	0.27009378
445	1.776	1.6978071	0.033634779	-0.01031831	1.2975565	0.087493969	0.17279191	1.572802	0.066321693	-0.034267277	1.259121	0.21948975	0.19455604	1.5752449	0.081140819	0.052246727	1.2988474	0.21454792	0.11601412	1.4967312	0.040179844	0.0086453634	1.2215236	0.25492383	0.13145219	1.6485929	0.43505498	-0.052085711	1.5803443	0.41752623	0.23289531	1.6172301	0.43202315	0.065641086	1.5800358	0.3961459	0.099128145	1.5372626	0.8179775	-0.11992766	1.4902477	0.76855584	0.21523111	1.5980769	0.85790641	-0.065525603	1.5768833	0.83622763	0.18033514	1.3954031	0.91660046	0.053371826	1.5107603	1.3288612	-0.13182017	1.4964908	1.3168079	0.23211142	1.4229591	1.3580486	0.045664308	1.4379252	1.0165737	-0.17584093	1.4592128	0.99299353	0.29438267	1.5632886	0.80953128	-0.22145665	1.6651669	0.85723782	0.2720335
446	1.78	1.6978153	0.033639369	-0.010302378	1.3148612	0.087034712	0.17394106	1.5727994	0.066449538	-0.034228685	1.2742441	0.2177856	0.19480762	1.5751994	0.081259635	0.052285636	1.312883	0.21342465	0.11569811	1.4967358	0.040313764	0.0086819815	1.2349266	0.25225257	0.13117167	1.6498787	0.43502853	-0.051588206	1.5917547	0.42074499	0.23236269	1.618093	0.43221212	0.066056859	1.5916263	0.39933746	0.098598373	1.5418828	0.81891759	-0.11992393	1.4959924	0.7709872	0.2157276	1.6036233	0.85928816	-0.065816008	1.5826308	0.838472	0.18019207	1.4012493	0.91822495	0.053091105	1.5167176	1.3308161	-0.13174585	1.501835	1.3186005	0.23206768	1.4286659	1.359794	0.045572419	1.4457724	1.0177597	-0.17619614	1.4620189	0.99522582	0.29351841	1.5747938	0.81240583	-0.22074764	1.6656198	0.85562892	0.27400756
447	1.784	1.6978263	0.033639123	-0.0102967	1.3324136	0.086500684	0.17508112	1.5727937	0.066570667	-0.034181306	1.2892941	0.2159429	0.1950354	1.5745077	0.081313091	0.052425783	1.3269442	0.21214919	0.11527277	1.4967463	0.040434201	0.008732732	1.248483	0.24933851	0.13057512	1.6510958	0.43501272	-0.05110776	1.6031118	0.42401101	0.2318151	1.61882	0.43234768	0.066434135	1.6032783	0.40264941	0.098059155	1.5469609	0.81984059	-0.11985355	1.5014494	0.77341328	0.21637493	1.6091673	0.86065856	-0.066098056	1.5884079	0.84071955	0.18002219	1.4068091	0.91977352	0.05292671	1.5226423	1.3327435	-0.13165371	1.5072537	1.3203484	0.23202539	1.4343665	1.3615165	0.045500664	1.4535974	1.0189571	-0.17657547	1.4646647	0.99750301	0.29267143	1.5862667	0.81537137	-0.22001179	1.6659847	0.85410058	0.27601684
448	1.788	1.6978303	0.03363677	-0.01029736	1.3501564	0.085888556	0.17621646	1.5727858	0.066684767	-0.03412026	1.3041343	0.21400059	0.19520942	1.5729559	0.08127877	0.052709395	1.3411818	0.21069331	0.11496453	1.4967544	0.040551846	0.0088101991	1.2621014	0.24619216	0.12992053	1.652245	0.43499831	-0.050644245	1.61441	0.4273218	0.23125765	1.6194763	0.43243552	0.06679173	1.6149169	0.40610615	0.097539474	1.5527808	0.82076259	-0.11970911	1.5069812	0.77578685	0.21705946	1.6146372	0.8620098	-0.066349717	1.5941814	0.84295714	0.1798318	1.4122979	0.92127206	0.0528434	1.5285509	1.3346592	-0.13154861	1.512757	1.3220773	0.23201579	1.4400486	1.3631676	0.04544117	1.4613955	1.020166	-0.17695493	1.4674612	0.99981454	0.29188794	1.5975813	0.81841677	-0.21926843	1.6662568	0.85265222	0.27806403
